<svg xmlns="http://www.w3.org/2000/svg" width="856" height="499" fill="none" viewBox="0 0 856 499">
  <path fill="#191919" d="M329.67 392.123c.049-1.611-2.504-1.809-2.573-.152a26.048 26.048 0 0 1-2.671 10.655 1.636 1.636 0 0 0-.64-.424 1.663 1.663 0 0 0-.766-.088 21.583 21.583 0 0 0-11.447 7.202 17.171 17.171 0 0 1-7.073 5.139 17.416 17.416 0 0 1-8.727 1.021 43.431 43.431 0 0 0-17.275.987c-5.43 2.028-10.056 6.352-15.947 6.937-6.572.686-12.941-2.621-19.575-1.986a46.545 46.545 0 0 0-16.975 6.726c-9.488 5.021-11.429 3.409-21.276 1.486-16.545-3.293-20.111 9.151-35.494 6.957-5.71-.765-12.237-2.008-16.809 2.285-4.559-5.011-3.532-18.75-3.46-23.437-.001-.782-1.275-1.101-1.421-.277-2.695 12.653-.984 28.017 13.05 33.097 12.392 4.516 32.958 1.435 46.779-.618 25.421-3.727 71.331-13.255 94.342-22.772 13.834-5.688 27.467-16.676 27.958-32.738Zm-82.841-30.998a29.628 29.628 0 0 0-7.586 12.37c4.762 1.697 9.599 3.746 14.509 5.452 2.216-7.796 7.03-14.627 13.666-19.394l-.052-.004a40.617 40.617 0 0 1-9.956-5.282 32.577 32.577 0 0 0-10.581 6.858Z"/>
  <path fill="#191919" d="M156.762 416.487c11.159 3.272 20.558-1.549 40.529-.909 14.414.551 28.763 3.073 43.241 2.547 14.478-.525 28.4-4.876 42.267-8.393 11.504-2.912 24.155-5.122 34.027-12.122 13.082-9.257 12.904-22.535 3.654-27.158-8.016-3.928-19.118-1.558-32.119-1.546-3.217-5.754-13.446-7.018-18.892-8.457-.589.302-1.155.647-1.694 1.032a37.052 37.052 0 0 0-13.212 18.174 37.22 37.22 0 0 0 25.568.867c3.795-1.449 9.017-5.18 8.917-9.321 8.165-.763 16.38-.838 24.557-.225 14.447 1.957 14.203 15.171 2.264 24.205-8.961 6.709-20.768 8.822-31.367 11.494a271.521 271.521 0 0 1-38.043 8.486 210.945 210.945 0 0 1-38.988-1.558 136.946 136.946 0 0 0-36.833 1.179c-17.088 1.689-24.164-5.459-25.173-15.956a76.735 76.735 0 0 1 .943-15.747c.683-5.62 2.977-12.526 10.175-9.592 5.747 2.356 8.48 8.707 14.111 11.415a15.658 15.658 0 0 0 7.272 1.519 15.655 15.655 0 0 0 7.156-2 40.837 40.837 0 0 0 10.367-11.2 24.168 24.168 0 0 1 13.174-8.478 15.96 15.96 0 0 0 10.621 3.922 36.283 36.283 0 0 1 9.24-16.732 36.573 36.573 0 0 1 16.489-9.765 22.388 22.388 0 0 0-13.031-9.577 20.927 20.927 0 0 0-10.222.862 20.86 20.86 0 0 0-8.573 5.609 21.993 21.993 0 0 0-5.179 10.495 1.34 1.34 0 0 0-.476.711 18.855 18.855 0 0 0-.118 12.695c-12.022 2.812-14.231 10.986-20.259 16.873a13.394 13.394 0 0 1-9.379 4.016 13.384 13.384 0 0 1-9.487-3.749c-4.082-3.696-7.257-8.549-12.975-9.724a7.843 7.843 0 0 0-5.206.329 7.793 7.793 0 0 0-3.835 3.519 4.526 4.526 0 0 0-1.286-1.652c-4.131-3.531-10.842 2.225-8.597 8.108a9.09 9.09 0 0 0 2.826 3.566 16.482 16.482 0 0 1 3.793 5.196 32.992 32.992 0 0 0 2.279 18.15 18.78 18.78 0 0 0 4.84 5.591 18.88 18.88 0 0 0 6.634 3.301Zm-16.554-35.385a5.256 5.256 0 0 1-1.206-4.007 3.287 3.287 0 0 1 .966-1.74 3.323 3.323 0 0 1 1.795-.871c2.418-.056 2.387 3.213 2.529 4.547a35.422 35.422 0 0 0-.891 5.015c-1.014-1.044-2.289-2.009-3.176-2.943l-.017-.001Z"/>
  <path fill="#191919" d="M222.111 369.272c4.871.863 9.671 2.082 14.361 3.646a30.66 30.66 0 0 1 7.562-12.854 36.17 36.17 0 0 1 10.614-7.472 43.436 43.436 0 0 1-7.033-7.628 34.804 34.804 0 0 0-16.123 8.691 34.252 34.252 0 0 0-9.381 15.617Zm347.009-3.112c-.289-1.641-2.811-1.1-2.508.537a25.698 25.698 0 0 1-.461 10.968 1.965 1.965 0 0 0-1.572-.192 22.035 22.035 0 0 0-9.909 9.723 16.897 16.897 0 0 1-5.923 6.298 17.125 17.125 0 0 1-8.295 2.58 41.774 41.774 0 0 0-16.519 4.419c-5.157 3.275-8.953 8.745-15.189 10.195-6.338 1.492-12.978-.273-19.262 1.906a48.065 48.065 0 0 0-14.834 10.07c-7.503 6.328-10.559 5.407-19.614 5.374-12.462-.02-17.16 6.995-23.512 10.884a21.344 21.344 0 0 1-10.6 3.106c-5.719.3-12.185.574-15.758 5.596-.097-.053-.139-.154-.236-.208-5.731-6.031-6.471-14.468-7.947-22.161a.729.729 0 0 0-.284-.412.743.743 0 0 0-.944.074.716.716 0 0 0-.215.451c-.049 13.245 5.019 27.971 20.026 29.988 12.812 1.737 31.595-5.099 44.986-9.965 23.744-8.584 66.689-26.912 87.608-41.068 12.562-8.627 23.813-22.103 20.962-38.163Zm-109.594-1.253c4.955-.12 9.913.122 14.832.723a31.016 31.016 0 0 1 4.98-14.427 38.075 38.075 0 0 1 8.627-9.114 44.488 44.488 0 0 1-8.46-6.097 34.773 34.773 0 0 0-13.973 11.761 34.278 34.278 0 0 0-6.006 17.154Z"/>
  <path fill="#191919" d="M408.24 423.632c10.955-.263 16.822-5.974 38.701-9.395 13.728-2.084 27.706-2.586 41.209-5.911a201.378 201.378 0 0 0 38.209-16.044c11.104-5.373 23.806-10.173 32.232-19.539 10.456-11.652 7.367-23.943-1.878-26.645-6.315-1.895-13.412.14-19.539 1.695-14.419 3.675-12.346 3.199-12.837 2.92-3.983-4.449-15.221-3.88-20.227-4.23a36.158 36.158 0 0 0-10.6 21.76 37.777 37.777 0 0 0 24.367-3.813c3.538-2.098 8.965-6.833 7.749-11.316 7.323-1.678 14.486-4.007 21.963-4.987 16.042-2.069 19.057 10.717 9.912 22.021-7.258 8.84-18.706 13.366-28.789 18.218a273.781 273.781 0 0 1-35.683 15.977c-17.001 5.331-35.687 5.087-53.836 8.65-15.227 3.107-24.551 9.35-35.095 7.834a16.187 16.187 0 0 1-7.959-3.417 15.98 15.98 0 0 1-5.021-7.012 53.945 53.945 0 0 1-2.664-14.969c-.435-5.127-1.577-14.122 6.128-13.965 6.325.127 10.575 5.922 16.24 8.021a15.89 15.89 0 0 0 7.348.801 15.851 15.851 0 0 0 6.907-2.609c8.959-6.3 6.606-18.552 20.433-24.892a15.812 15.812 0 0 0 11.027 1.73l.147.009a35.283 35.283 0 0 1 4.462-16.161 35.634 35.634 0 0 1 11.438-12.334 62.512 62.512 0 0 1 3.907-2.469 22.61 22.61 0 0 0-13.921-6.756 20.824 20.824 0 0 0-9.892 2.495 20.615 20.615 0 0 0-7.485 6.882c-4.035 6.198-5.606 19.764-1.257 25.138-12.093 5.496-11.669 14.81-17.368 21.835-5.125 6.272-12.908 5.762-19.093 1.622-4.327-2.838-8.668-6.395-14.195-5.791a8.18 8.18 0 0 0-4.269 1.73 8.068 8.068 0 0 0-2.635 3.753 4.835 4.835 0 0 0-1.832-1.466 4.885 4.885 0 0 0-4.558.259 4.813 4.813 0 0 0-1.651 1.663 7.084 7.084 0 0 0-.362 7.727 9.414 9.414 0 0 0 3.623 3.059 12.989 12.989 0 0 1 4.46 4.042c.813.909.691 12.236 7.434 18.733a20.13 20.13 0 0 0 6.849 4.056 20.236 20.236 0 0 0 7.901 1.091Zm-26.401-31.326c-1.701-1.237-2.829-4.73-.565-6.215 2.471-1.619 3.614.751 4.255 3.243a49.683 49.683 0 0 0 .116 5.305c-1.237-.86-2.729-1.542-3.806-2.333Z"/>
  <path fill="#191919" d="M476.327 366.064c5.009.725 10.148 1.824 15.306 2.52a36.178 36.178 0 0 1 9.386-21.831 40.336 40.336 0 0 1-10.86-3.223 30.678 30.678 0 0 0-9.497 9.714 30.34 30.34 0 0 0-4.335 12.82ZM207.287 57.382c-1.377-.176-5.688 1.529-6.02-.407-.258-1.487-2.515-.983-2.308.502a3.52 3.52 0 0 0 1.195 1.958 3.581 3.581 0 0 0 2.156.822 10.482 10.482 0 0 0 3.252-.493 4.987 4.987 0 0 1 2.28.088 4.95 4.95 0 0 1 1.997 1.093.874.874 0 0 0 1.052-.076.853.853 0 0 0 .201-1.025 4.868 4.868 0 0 0-1.597-1.695 4.924 4.924 0 0 0-2.208-.767Zm9.536 13.707a6.385 6.385 0 0 1-2.834 1.013 1.074 1.074 0 0 0-.683.451 1.055 1.055 0 0 0 .297 1.473c.236.156.526.213.805.158 2.107-.414 6.006-1.85 5.818-4.513a26.45 26.45 0 0 0-1.877-4.966 38.883 38.883 0 0 0-1.254-5.566.75.75 0 0 0-.736-.406.757.757 0 0 0-.658.522c-.378 3.331.213 6.7 1.702 9.712.328 1.048.504 1.3-.58 2.122Zm-12.331 1.534a1.03 1.03 0 0 0-1.642-.195 1.003 1.003 0 0 0-.263.57c-.643 4.133-3.353 13 2.168 15.137 5.099 1.97 8.826-5.076 9.794-8.837a1.608 1.608 0 0 0-.305-1.072 1.64 1.64 0 0 0-.932-.624 11.207 11.207 0 0 1-5.017-1.435 11.082 11.082 0 0 1-3.803-3.544Zm7.94 6.451a13.62 13.62 0 0 1-3.985 6.14 2.948 2.948 0 0 1-2.612.369 2.912 2.912 0 0 1-1.856-1.858 21.983 21.983 0 0 1 .395-8.268 11.34 11.34 0 0 0 3.658 2.62c1.384.62 2.881.96 4.4.997Zm115.996 69.382a24.946 24.946 0 0 0 .339 21.655.873.873 0 0 0 1.497.026.848.848 0 0 0 .118-.573c-1.131-7.328-3.349-8.621-.21-20.463a.913.913 0 0 0-.025-.705.934.934 0 0 0-1.719.06ZM198.662 362.857c-11.044-2.463-27.263-.353-38.245 2.457-1.055-47.736.04-96.326 14.39-141.893 1.833-5.777 4.105-11.48 5.793-17.308.251-.919-1.088-1.73-1.588-.782-7.943 15.089-14.189 43.463-16.89 60.32a523.967 523.967 0 0 0-4.226 101.189c.055.739.702 1.56 1.555 1.318 17.9-5.213 29.127-3.321 38.793-3.26 1.191.014 1.688-1.76.418-2.041Zm-88.892-70.231c-3.663-1.64-5.253-4.919-7.795-7.776a1.166 1.166 0 0 0-1.503-.184 1.147 1.147 0 0 0-.473.648 1.13 1.13 0 0 0 .07.796 16.63 16.63 0 0 0 4.197 5.907 16.845 16.845 0 0 0 6.33 3.59 8.958 8.958 0 0 0 5.48-.087 8.85 8.85 0 0 0 4.382-3.258 175.62 175.62 0 0 0 17.974 7.631c2.471.933 5.668 2.151 7.831-.077a3.733 3.733 0 0 0-.508-5.522c-4.351-4.316-8.174-4.067-26.976-23.663a.667.667 0 0 0-.715-.183.664.664 0 0 0-.38.335.67.67 0 0 0-.065.248.67.67 0 0 0 .168.476 102.87 102.87 0 0 0 22.598 21.993c.382.293 1.78 1.064 2.813 1.81a1.538 1.538 0 0 1 .628 1.06 1.535 1.535 0 0 1-.357 1.177c-1.401 1.6-3.124.462-4.779-.075-21.465-8.009-22.388-10.965-28.806-15.385-.953-.642-1.92.623-1.274 1.449a32.023 32.023 0 0 0 10.027 7.908 8.228 8.228 0 0 1-4.256 1.895 8.268 8.268 0 0 1-4.611-.713Z"/>
  <path fill="#191919" d="M258.98 184.253c-3.445-26.194-15.929-32.729-41.435-31.301-28.416 1.58-55.985 13.649-79.114 30.951a41.684 41.684 0 0 0-8.098.597c-15.124 2.255-34.415 8.33-45.28 18.91a386.683 386.683 0 0 0-3.907-11.735c11.656-9.567 15.217-7.959 20.121-11.653a.922.922 0 0 0-.547-1.603 26.876 26.876 0 0 0-11.272 4.515 56.837 56.837 0 0 0-9.153 6.395 384.76 384.76 0 0 0-10.204-25.681c-.66-1.463-2.855-.315-2.243 1.162a374.467 374.467 0 0 1 22.907 70.092 31.274 31.274 0 0 1 1.312 6.27c-.005 3.349-3.237 4.388-5.61 5.966a82.244 82.244 0 0 0-17.4 15.891c-14.512-17.926-31.893-43.487-40.425-64.901a66.523 66.523 0 0 1-4.611-38.035c5.768-26.562 34.064-37.264 59.386-50.876a.929.929 0 0 0-.149-1.688.954.954 0 0 0-.694.02 205.833 205.833 0 0 0-37.256 19.814c-10.374 6.244-18.328 15.771-22.582 27.048-8.525 25.743 5.212 52.035 18.237 73.649a340.453 340.453 0 0 0 26.118 37.028 30.485 30.485 0 0 1 6.482 10.622c3.058 7.037 7.69 21.261 15.293 23.97a5.963 5.963 0 0 0 5.564-.613 7.24 7.24 0 0 0 2.01-2.855 10.136 10.136 0 0 0 6.238 2.256c2.276.032 4.497-.7 6.301-2.078a.818.818 0 0 0-.333-1.406.831.831 0 0 0-.578.057 9.378 9.378 0 0 1-9.765-.821 30.472 30.472 0 0 1-6.57-6.924c-.639-.936-1.767.482-1.463 1.29 1 2.486 2.623 4.677 4.715 6.367.186.157-.06.428-.284.751-3.17 4.634-8.331-.736-10.39-3.611-5.262-7.322-7.513-18.61-13.487-27.118a74.84 74.84 0 0 1 10.044-10.52c3.914-3.347 11.341-7.864 11.646-8.376 6.678 9.455 25.991 3.83 31.863 14.123a11.543 11.543 0 0 1 1.446 6.429c-.135 2.253-1.431 3.998-1.707 6.144a.958.958 0 0 0 .43.847.98.98 0 0 0 .954.067c3.185-1.923 3.479-7.265 2.803-10.502a13.915 13.915 0 0 0-2.633-5.737 14.052 14.052 0 0 0-4.907-4.003 42.066 42.066 0 0 0-13.13-3.362 21.57 21.57 0 0 1-13.63-5.774 10.62 10.62 0 0 0-.026-6.837 364.307 364.307 0 0 0-8.291-32.055c3.77-2.536 7.351-5.272 11.32-7.498a106.771 106.771 0 0 1 38.467-11.734 183.732 183.732 0 0 0-35.218 36.268c-.591.798.632 1.858 1.325 1.109a267.306 267.306 0 0 1 45.925-42.977 143.11 143.11 0 0 1 59.134-24.053 71.666 71.666 0 0 1 32.261.722c10.687 3.581 15.108 13.331 16.918 23.617 4.203 23.361-1.416 47.713-7.276 70.283a578.325 578.325 0 0 1-25.635 73.969c-.576 1.343 1.515 2.006 2.131.717a398.134 398.134 0 0 0 24.861-70.131c6.234-22.992 12.251-47.464 9.091-71.458Zm173.492 175.984a84.531 84.531 0 0 0-27.161 12.515c-27.437-30.891-48.423-66.88-61.744-105.879-.55-1.56-3.106-1.072-2.558.535 13.55 39.805 34.97 76.525 63.004 108.008a1.308 1.308 0 0 0 1.617.294 171.418 171.418 0 0 1 27.297-13.984.788.788 0 0 0 .411-.937.782.782 0 0 0-.33-.434.802.802 0 0 0-.536-.118Zm-89.781-104.373a328.988 328.988 0 0 1-65.521 16.855c-14.335 2.09-17.453 1.518-21.792 3.092a.725.725 0 0 0 .12 1.336c3.442.455 6.933.395 10.356-.179a303.27 303.27 0 0 0 67.175-14.63 72.513 72.513 0 0 0 10.597-3.998 1.338 1.338 0 0 0-.026-2.321c-.275-.155-.597-.21-.909-.155Z"/>
  <path fill="#191919" d="M148.818 305.664c-6.438.322-9.504 3.81-24.34 2.935a74.48 74.48 0 0 1-24.366-6.511.897.897 0 0 0-.626.047.932.932 0 0 0-.452.448.957.957 0 0 0-.064.639.932.932 0 0 0 .353.53c13.502 10.497 42.687 9.206 50.17 3.808a1.14 1.14 0 0 0-.113-1.667 1.078 1.078 0 0 0-.562-.229Z"/>
  <path fill="#EF233C" d="M218.912 54.423a2.169 2.169 0 0 0 2.084-1.208 2.135 2.135 0 0 0-.33-2.368 2.195 2.195 0 0 0-2.337-.605 2.15 2.15 0 0 0-1.458 1.906 2.163 2.163 0 0 0 .553 1.549c.381.425.915.686 1.488.726Zm-14.988 331.548c1.891 9.219 15.047 13.015 22.94 14.614a46.482 46.482 0 0 0 15.188.843c3.6-.426 11.311-1.593 12.733-5.488.072-.214.093-.442.063-.667a1.482 1.482 0 0 0-.736-1.083 1.517 1.517 0 0 0-.647-.194c-1.916-.358-3.482.924-5.208 1.612a45.864 45.864 0 0 1-32.731-2.717 33.428 33.428 0 0 1-9.99-7.662.917.917 0 0 0-1.534.152.892.892 0 0 0-.078.59Zm238.006 3.849c4.554 8.522 18.564 8.166 26.746 7.42a45.49 45.49 0 0 0 14.352-3.526c3.16-1.434 10.408-4.84 10.45-8.816a1.495 1.495 0 0 0-.527-1.19 1.52 1.52 0 0 0-1.267-.338c-1.845.137-2.934 1.741-4.341 2.84-8.06 6.422-20.956 8.248-31.181 7.051a33.87 33.87 0 0 1-12.97-4.596c-.721-.383-1.757.341-1.262 1.155Z"/>
  <path fill="#EF233C" d="M781.573 279.881c-.139-22.525 1.155-44.945 2.986-67.32a1.995 1.995 0 0 0-1.144-1.861 2.02 2.02 0 0 0-2.179.291 540.253 540.253 0 0 0-56.371 45.359 1.997 1.997 0 0 0-.267 2.565c.266.39.663.676 1.12.806.457.13.946.096 1.381-.095a401.543 401.543 0 0 0 19.171 9.129c-23.764 41.533-51.965 86.44-81.414 128.53-9.526-14.601-12.533-18.616-15.904-23.174a92.878 92.878 0 0 0-6.715-7.81c.238-.619.28-1.296.12-1.94a3.256 3.256 0 0 0-1.014-1.665 3.313 3.313 0 0 0-3.72-.444c-9.542 4.913-34.988 20.508-91.949 51.331-30.557 16.561-125.894 64.647-142.096 73.756-.445-1.857-10.814-36.228-17.455-55.221a96.427 96.427 0 0 0-5.935-15.544c-1.028-1.783-3.315-4.399-5.92-4.096-7.968.926-328.788 77.303-332.065 78.169a112.711 112.711 0 0 0-17.02 5.425c-.39.208-.691.547-.85.956a1.817 1.817 0 0 0-.015 1.274c.149.412.442.758.826.975.385.217.835.29 1.269.206 2.117-.353 2.74-.364 5.542-.703 5.344-.736 340.003-78.947 342.656-79.76a111.279 111.279 0 0 0 4.482 14.545c2.132 6.587 14.352 45.764 15.296 49.011 1.574 5.306 2.26 12.657 7.386 11.576 7.442 1.183 199.846-101.212 236.464-124.106 6.711 11.364 5.407 8.448 23.155 36.116.321.594.79 1.096 1.362 1.459a4.003 4.003 0 0 0 5.401-1.061c32.673-46.401 59.174-88.919 85.444-134.543a318.098 318.098 0 0 0 25.389 9.547 1.976 1.976 0 0 0 2.314-.851c.152-.253.244-.538.269-.832Z"/>
  <path fill="#EF233C" d="M630.016 297.737a16.602 16.602 0 0 0-8.194-1.957c.411-2.726 1.158-5.333 1.72-8.055.212-1.065-1.257-2.134-1.923-.945a24.124 24.124 0 0 0-2.861 8.918 18.362 18.362 0 0 0-8.197 1.432.955.955 0 0 0-.479 1.036.957.957 0 0 0 .862.754c2.491.128 4.987.113 7.476-.047a18.099 18.099 0 0 0 .926 9.335 1.233 1.233 0 0 0 1.991.244c.176-.194.286-.439.311-.699a58.166 58.166 0 0 0-.071-8.746c2.676.517 5.393.793 8.118.823.899-.145 1.039-1.616.321-2.093Zm-40.395-137.658a12.15 12.15 0 0 0-8.315.002 17.328 17.328 0 0 0-6.82-8.359 1.08 1.08 0 0 0-1.379.202 1.057 1.057 0 0 0-.019 1.384 48.873 48.873 0 0 1 4.982 7.664 17.2 17.2 0 0 0-6.688 3.434.966.966 0 0 0-.222 1.155.982.982 0 0 0 1.064.516c2.363-.594 4.598-1.596 6.87-2.346.442 1.489.715 3.021.812 4.57-.064 1.45.1 2.901.485 4.3a1.294 1.294 0 0 0 1.073.686c.223.013.446-.031.647-.128s.373-.244.5-.427a12.821 12.821 0 0 0-.256-9.792 22.523 22.523 0 0 0 7.17-1.539c.479-.316.625-1.092.096-1.322Zm158.398-40.822a17.288 17.288 0 0 0 3.67-10.099 1.057 1.057 0 0 0-.848-1.067 1.061 1.061 0 0 0-1.203.649 49.377 49.377 0 0 1-4.052 8.21 16.738 16.738 0 0 0-6.4-3.912c-.854-.248-1.786.826-1.031 1.561 1.677 1.719 3.724 3.068 5.61 4.641-3.576 3.811-5.539 3.734-6.971 5.68a1.261 1.261 0 0 0 1.02 1.974 12.808 12.808 0 0 0 4.707-1.817 12.693 12.693 0 0 0 3.626-3.49 21.34 21.34 0 0 0 5.027 5.309c.421.219 1.184.018 1.124-.571a11.462 11.462 0 0 0-4.279-7.068Zm-1.774-93.534c-6.754-9.907-17.81-19.025-30.448-18.691a.916.916 0 0 0-.851.505.903.903 0 0 0 .12.978 32.545 32.545 0 0 1 7.138 22.129 12.046 12.046 0 0 0-4.305-2.238 12.097 12.097 0 0 0-4.845-.362c-.843.097-.813 1.177-.291 1.604a17.154 17.154 0 0 1 3.742 7.605 17.095 17.095 0 0 1-.361 8.457c-1.152 5.24-3.356 9.773-2.246 15.245a18.711 18.711 0 0 0 6.931 11.316 18.964 18.964 0 0 0 12.737 3.938c18.181-1.162 27.827-28.269 12.679-50.486Zm-9.952 36.486a6.277 6.277 0 0 1-5.936-.71 6.204 6.204 0 0 1-1.991-2.34 6.157 6.157 0 0 1-.616-3.001 7.87 7.87 0 0 1 .66-5.518 7.958 7.958 0 0 1 4.149-3.73 7.99 7.99 0 0 1 5.759 1.143 7.887 7.887 0 0 1 3.395 4.758 7.837 7.837 0 0 1-.826 5.773 7.937 7.937 0 0 1-4.594 3.633v-.008Zm-40.984 90.585c-9.294-17.303-25.463-34.214-46.067-36.311a.914.914 0 0 0-.945.828.901.901 0 0 0 .078.449 57.127 57.127 0 0 1 6.802 41.757 19.911 19.911 0 0 0-6.819-5.456 20.048 20.048 0 0 0-8.517-2.029.918.918 0 0 0-.845.508.904.904 0 0 0 .114.975l.138.154c.001.121.028.24.079.35a30.351 30.351 0 0 1 2.365 27.447c-2.955 8.818-8.402 16.317-8.04 26.003a31.864 31.864 0 0 0 9.187 21.555 32.309 32.309 0 0 0 21.516 9.566c31.06 1.355 53.557-43.699 30.954-85.796Zm-28.33 67.057c-7.333 1.81-13.933-1.601-14.236-13.952-.219-9.035 6.882-16.604 15.231-13.759a15.753 15.753 0 0 1 6.91 5.19 15.592 15.592 0 0 1 3.106 8.03 14.142 14.142 0 0 1-2.869 9.22 14.32 14.32 0 0 1-8.142 5.271Zm181.699-100.907c-1.214-15.983-7.62-33.947-22.249-42.422a.936.936 0 0 0-1.005.028.922.922 0 0 0-.39.92 47.163 47.163 0 0 1-9.125 33.405 16.53 16.53 0 0 0-3.378-6.364 16.698 16.698 0 0 0-5.776-4.344.886.886 0 0 0-.718.061.87.87 0 0 0-.423.579c-.199.924 3.53 11.459-8.87 23.618-5.627 5.514-11.752 9.476-14.44 17.177a26.491 26.491 0 0 0 .464 19.13 26.754 26.754 0 0 0 13.246 13.899c23.07 11.015 55.736-15.619 52.664-55.687Zm-30.691 38.243c-5.258 13.993-28.584 6.02-18.915-8.037a11.492 11.492 0 0 1 5.864-5.871 11.607 11.607 0 0 1 8.316-.419 11.727 11.727 0 0 1 4.998 6.306 11.638 11.638 0 0 1-.263 8.021Z"/>
  <path fill="#191919" d="M239.203 26.155a15.116 15.116 0 0 0-3.821-7.313 15.375 15.375 0 0 0-7.12-4.264c-1.769-.25-3.242.3-4.937-.39a30.943 30.943 0 0 1-4.434-2.907c-7.386-4.523-18.79-5.242-30.441 1.649-13.828 8.221-22.471 22.505-35.102 32.256-27.413 21.19-66.44 28.4-84.893 50.794a1.454 1.454 0 0 0 .19 1.846c.16.158.355.278.57.35 12.906 3.114 21.404 14.35 25.957 26.093 5.622 14.53 5.958 30.505 10.42 45.363a1.468 1.468 0 0 0 .808.965 1.492 1.492 0 0 0 1.267-.008c36.454-15.456 66.457-41.752 72.927-80.28 2.08-12.356 2.285-26.543 11.674-35.99 8.598-8.662 21.354-11.34 30.411-19.387a34.924 34.924 0 0 0 10.088 13.4c-.427 3.8-.85 7.595-1.375 11.342-1.578-.093-6.342-3.73-10.163.873-.427.513.317 1.31.881.982 4.453-2.514 5.601-.247 8.95.428a150.75 150.75 0 0 1-1.592 9.221c-1.381 6.49-3.205 13.787-9.238 17.601a20.963 20.963 0 0 1-18.349 1.269c-6.983-2.615-11.236-7.817-16.391-12.781-.894-.836-2.684.139-1.914 1.311a35.1 35.1 0 0 0 10.38 10.201 35.53 35.53 0 0 0 13.67 5.161 16.05 16.05 0 0 0-.568 3.74 6.296 6.296 0 0 0 1.05 4.769.996.996 0 0 0 1.656-.332 9.522 9.522 0 0 0 .008-4.268c-.019-1.292.201-2.488.277-3.758a20.541 20.541 0 0 0 10.004-2.353 24.174 24.174 0 0 0 7.404-7.226 23.889 23.889 0 0 0 3.673-9.626 104.581 104.581 0 0 0 3.252-25.255c.094.105.238.16.332.265a1.457 1.457 0 0 0 2.127-.71 33.122 33.122 0 0 0 2.362-23.03Zm-32.1-11.206a39.753 39.753 0 0 0-9.855 2.264c-3.269 1.619-4.88 4.467-7.678 6.51-.726.495-2.039.125-1.878-.894 1.057-6.904 13.298-12.603 19.522-9.736a.982.982 0 0 1 .484.38.958.958 0 0 1-.069 1.156.986.986 0 0 1-.526.32Zm119.019 159.298c-.397.024-.844-.003-1.242.025-18.7.663-43.478 9.087-60.596 16.534-.893.378-.367 1.988.597 1.653 18.698-6.007 42.981-15.97 62.647-15.384-.5-.928-.969-1.871-1.406-2.828Zm117.466 160.38a650.685 650.685 0 0 0-11.988-39.586 7.039 7.039 0 0 1-2.666.923c4.445 12.96 8.307 26.082 11.978 39.241.46 1.697 3.13 1.136 2.676-.578Zm-19.223-64.822a.667.667 0 0 0-.731-.332.666.666 0 0 0-.525.603c-.096 3.277.903 6.722 1.141 10.019a89.759 89.759 0 0 1-2.06 25.325 11.615 11.615 0 0 1-1.59 4.76c-2.735 3.023-3.402-2.782-3.892-7.092a152.07 152.07 0 0 0-3.672-29.733.79.79 0 0 0-.361-.453.803.803 0 0 0-1.06.231.787.787 0 0 0-.135.561c.282 2.129.615 4.265.853 6.392-9.111.668-11.958-6.728-10.409-15.733 1.142-6.649 3.865-13.257 1.193-19.933-.306-.707-1.471-.285-1.333.459 2.245 8.863-3.197 17.07-2.349 25.945a13.101 13.101 0 0 0 4.039 8.77 10.737 10.737 0 0 0 4.245 2.342c1.578.449 3.239.533 4.854.247.728 5.795 1.393 11.553 1.696 17.466.165 3.047.019 15.443 5.942 13.391 2.984-1.003 3.343-4.966 3.822-7.52a88.735 88.735 0 0 0 1.766-24.555 33.291 33.291 0 0 0-1.434-11.16Z"/>
  <path fill="#191919" d="M432.579 267.542a.871.871 0 0 0-1.469.506 30.2 30.2 0 0 0 1.214 6.222c.396 2.351.568 4.734.513 7.118a10.466 10.466 0 0 1-1.914 6.276 10.574 10.574 0 0 1-5.283 3.93.743.743 0 0 0-.154 1.196.748.748 0 0 0 .418.197 10.212 10.212 0 0 0 5.89-2.725 10.102 10.102 0 0 0 3.036-5.707c.482-2.981.497-6.018.043-9.003a15.784 15.784 0 0 0-2.294-8.01Zm7.442-3.548a.76.76 0 0 0-1.332.461c-.254 2.145 1.607 4.669 2.349 10.427.512 3.87.067 10.435-4.975 11.076-.797.1-.671 1.338.117 1.385 4.489.316 6.523-4.687 6.891-8.354a25.865 25.865 0 0 0-.621-7.863 13.734 13.734 0 0 0-2.429-7.132Z"/>
  <path fill="#191919" d="M441.177 249.107c-5.485-7.327-14.061-11.687-18.797-19.71-.397-.656-1.672-.342-1.371.458 2.807 7.905 10.748 12.223 16.205 18.194a31.147 31.147 0 0 1 6.855 12.331 30.69 30.69 0 0 1 .666 14.019c-.235 1.448 2.046 1.531 2.326.137a32.256 32.256 0 0 0-.263-13.306 32.651 32.651 0 0 0-5.621-12.123Z"/>
  <path fill="#191919" d="M423.837 227.362c-15.675-34.308-42.139-74.485-69.387-97.647-22.926-19.279-50.66-32.11-80.303-37.153-41.406-7.888-45.245 6.489-63.985 11.952a26.828 26.828 0 0 1-14.352.185 17.42 17.42 0 0 1-6.443-2.381 17.23 17.23 0 0 1-4.997-4.678 1.132 1.132 0 0 0-1.488-.44 1.109 1.109 0 0 0-.507 1.452c2.912 6.069 10.812 8.548 17.059 9.308 15.591 1.889 27.268-10.858 40.785-13.981 15.174-3.509 36.201 1.123 51.054 5.162a162.621 162.621 0 0 1 53.046 25.726c31.205 22.964 60.18 66.523 76.625 102.23a36.22 36.22 0 0 0-14.384 10.104 1.406 1.406 0 0 0-.223.379 156.23 156.23 0 0 0-4.913 4.966 558.46 558.46 0 0 1-55.604-52.404 167.434 167.434 0 0 1-14.078-19.447c-.366-.513-1.335-.031-1.127.572 6.282 18.728 55.003 60.971 70.378 73.664a1.055 1.055 0 0 0 1.311-.069c1.704-1.918 3.495-3.675 5.293-5.487.132-.096.254-.204.364-.324.054-.044.108-.14.163-.184a33.025 33.025 0 0 1 12.594-8.938.046.046 0 0 0 .012.034c.008.01.02.015.033.016l2.895-1.153a1.534 1.534 0 0 0 .179-1.464Z"/>
  <path fill="#EF233C" d="M498.066 314.543c-1.631-8.029-5.788-23.731-7.929-31.592a42.75 42.75 0 0 0-3.22-9.977c-.392-.71-1.657-.527-1.608.335.05 3.082.719 5.14 4.92 20.548 1.906 7.061 3.816 14.123 6.138 21.062a.859.859 0 0 0 .385.538.878.878 0 0 0 1.2-.267.848.848 0 0 0 .114-.647Zm32.941-.177a169.96 169.96 0 0 0 7.578-29.617 30.585 30.585 0 0 0 .89-9.928c-.1-.792-1.198-.707-1.431-.085-1.745 4.068-1.112 11.303-8.736 39.075a.873.873 0 0 0 .096.63.906.906 0 0 0 1.603-.075Zm31.642 10.836a278.175 278.175 0 0 0 29.42-27.536c.745-.884-.671-2.092-1.51-1.313-4.882 4.561-9.488 9.379-14.277 13.989-4.79 4.609-9.721 9.116-14.611 13.741a.741.741 0 0 0-.001.977.761.761 0 0 0 .979.142Zm-266.651 25.25c-3.882-8.818-10.387-21.867-13.221-27.745a45.555 45.555 0 0 0-4.705-8.644.812.812 0 0 0-.96-.165.801.801 0 0 0-.423.865 44.014 44.014 0 0 0 3.928 8.993c1.503 3.026 10.569 21.422 13.78 27.482.106.21.291.369.516.444a.904.904 0 0 0 .683-.047.883.883 0 0 0 .449-.509.873.873 0 0 0-.047-.674Zm20.353-.317c2.201-9.357 3.739-20.227 5.159-29.841.694-3.228.975-6.53.836-9.829-.1-.864-1.339-.813-1.63-.096a39.625 39.625 0 0 0-1.553 9.357c-.448 3.35-3.243 23.495-4.092 30.201-.191.71 1.099.983 1.28.208Zm20.024 10.134c4.118-4.013 7.934-8.289 11.764-12.569a92.683 92.683 0 0 0 10.91-12.422.844.844 0 0 0-.188-1.057.874.874 0 0 0-1.086-.049 47.364 47.364 0 0 0-5.974 6.159c-5.355 5.99-11.38 12.472-16.651 18.887-.538.698.601 1.659 1.225 1.051Z"/>
</svg>
