<svg xmlns="http://www.w3.org/2000/svg" width="757" height="791" fill="none" viewBox="0 0 757 791">
  <path fill="#191919" d="M360.902 133.504c5.771-8.57 19.545-5.364 28.336-13.039a12.108 12.108 0 0 0 3.107-4.12c.307-1.132-.336-2.926-1.538-2.567-2.396.716-1.741 2.798-5.927 5.356-7.863 4.765-18.171 3.15-24.997 9.921-5.707 5.668-5.491 14.289-9.712 20.429-.281.452-.537.919-.767 1.399-.579 1.075.619 2.45 1.741 1.742 5.392-3.389 5.703-13.098 9.757-19.121Zm60.334-29.059c-2.516 3.578-6.43 12.139-15.257 16.808a25.577 25.577 0 0 1-5.819 2.15 1.81 1.81 0 0 0-.695 3.094c.324.288.741.45 1.175.456 9.465-.852 20.588-12.495 23.008-21.496a1.331 1.331 0 0 0-.779-1.527 1.323 1.323 0 0 0-1.633.515Zm-9.418 38.128a1.734 1.734 0 0 0 2.467-.947c.111-.317.127-.661.045-.988-1.022-3.413-6.961-6.111-10.515-6.954a37.071 37.071 0 0 0-22.194 2.881 1.213 1.213 0 0 0-.734.573 1.219 1.219 0 0 0 1.381 1.774c1.199-.18 2.397-.304 3.551-.508 1.154-.204 2.324-.524 3.486-.747 16.571-3.21 20.125 3.701 22.513 4.916Zm1.949 5.772c-6.789-5.932-15.068-5.029-25.22-3.746a1.407 1.407 0 0 0-1.048.387 1.408 1.408 0 0 0-.326 1.585 1.408 1.408 0 0 0 1.374.854c12.72.544 17.42-2.206 24.302 6.444 2.492 3.129 7.093-.12.918-5.524Zm59.551-38.604a15.854 15.854 0 0 0-6.989-10.524c-1.366-.859-2.68 1.032-1.665 2.159 4.672 5.196 5.591 14.557 5.319 21.36-.099 2.442-.798 5.943 1.454 5.995 4.677.08 2.964-14.741 1.881-18.99Zm10.712 3.85a1.326 1.326 0 0 0-2.445.663 25.386 25.386 0 0 0 .428 5.328c.798 9.993-1.813 13.898-.799 16.172a1.513 1.513 0 0 0 2.061.54c3.323-2.119 3.686-18.75.755-22.703ZM205.572 327.835c.619 3.829.268 4.796.835 5.695 1.058 1.687 2.648 1.599 3.375.444 1.837-2.902-2.205-22.363-11.558-32.06a28.878 28.878 0 0 0-3.327-2.738c-1.003-.763-2.396.719-1.717 1.719 6.553 9.724 10.499 15.272 12.392 26.94Zm13.176-8.246a104.35 104.35 0 0 1 2.827 24.214c.052 2.314-.112 2.434 1.158 3.965a1.1 1.1 0 0 0 1.546 0c1.342-1.419 1.362-1.711 1.242-6.935-.591-25.077-10.384-48.584-20.368-59.62-.947-1.047-2.472.284-1.873 1.447 5.751 11.188 11.342 19.546 15.468 36.929Zm239.366 87.219c4.054.875 289.776 51.461 294.105 51.597 1.921.06-.611-.184.164 0 .648.087 1.303.121 1.957.1a3.442 3.442 0 0 0 1.841-.172l-.911.12c1.949.364 2.265-1.939.879-2.214-.204-.04-.547-.272.451.491a40.082 40.082 0 0 0-10.783-3.361c-6.789-1.599-283.613-48.424-286.996-49.124-1.67-.355-2.388 2.203-.707 2.563Zm53.736 127.161c2.117.195 216.614 43.939 218.571 42.828l-.935.128a1.205 1.205 0 0 0 .839-2.259c-10.208-3.349-216.63-42.436-218.459-42.532-1.218-.06-1.166 1.731-.016 1.835Zm-48.065-43.248c1.917-7.682 1.901-14.893 4.924-33.003a4.95 4.95 0 0 0 .068-2.642c-.87-2.227-3.85-2.179-4.333 1.071-1.769 11.851-2.596 19.869-3.071 26.336a26.253 26.253 0 0 0 .032 7.91c.112 1.299 2.029 1.739 2.38.328Zm22.078 4.94c1.481-1.523 3.047-2.97 4.493-4.52 17.496-18.738 17.4-17.867 18.419-19.346a2.127 2.127 0 0 0-1.563-3.134 2.122 2.122 0 0 0-1.325.244 175.024 175.024 0 0 0-21.873 25.333c-.763 1.083.93 2.343 1.849 1.423Zm12.436 19.845a9.5 9.5 0 0 0 3.159-.439 64.63 64.63 0 0 1 9.118-2.027c18.943-3.557 19.454-3.129 19.913-4.964a2.078 2.078 0 0 0-.959-2.282 3.583 3.583 0 0 0-2.603-.076c-13.743 2.638-18.236 3.357-23.164 4.836-5.719 1.723-5.292 2.338-6.45 3.254-.16.158-.262.365-.291.587a1.015 1.015 0 0 0 1.277 1.111Zm181.513-166.064c-1.406-9.62-13.447-16.463-18.423-26.867-6.39-13.371.455-22.384-2.916-33.336-.683-2.222-4.185-1.275-3.494.964 3.426 11.131-7.209 24.17 9.093 43.167 5.009 5.836 11.726 11.464 12.05 17.643a18.21 18.21 0 0 1-7.253 14.282c-7.361 6.243-18.487 7.386-29.594 12.63-9.984 4.709-18.91 11.819-28.599 17.415-17.074 9.865-46.907 18.514-64.028 12.631-15.42-5.3-19.234-21.184-7.341-31.577 1.027.464 14.881 4.637 29.486 10.496a1.892 1.892 0 0 0 1.976-.677 1.89 1.89 0 0 0 .145-2.084 84.706 84.706 0 0 0-12.7-18.966l1.042-.564a142.625 142.625 0 0 1 27.014 7.862c.332.09.682.091 1.014.003a1.96 1.96 0 0 0 1.385-1.386 1.963 1.963 0 0 0-.003-1.015 51.942 51.942 0 0 0-11.318-17.559c3.802-3.197-2.261-.4 25.776 3.254a1.991 1.991 0 0 0 1.984-2.002c0-.35-.092-.693-.267-.996a41.784 41.784 0 0 0-13.579-15.748c9.094-14.018 6.961-23.467 11.402-29.178 8.93-11.516 31.092 16.619 45.529.255a16.312 16.312 0 0 0 2.668-17.938c-.799-1.531-3.522-.444-2.839 1.199a13.486 13.486 0 0 1 .054 9.59 13.464 13.464 0 0 1-6.333 7.197c-13.091 6.655-31.826-17.055-42.609-2.254-5.028 6.899-2.396 15.189-11.239 29.03a23.429 23.429 0 0 0-4.485-1.958 1.838 1.838 0 0 0-2.126 1.074 1.842 1.842 0 0 0 .713 2.275c1.198.644 2.396 1.259 3.594 1.919a65.343 65.343 0 0 1-7.776 8.653 23.093 23.093 0 0 0-8.215.06 1.998 1.998 0 0 0-1.213 2.757 2 2 0 0 0 .742.841c1.597 1.199 1.821 1.431 2.228 1.77a111.57 111.57 0 0 1-13.135 8.426c-1.925-.272-3.854-.512-5.775-.767a1.818 1.818 0 0 0-1.758 2.163c.066.349.233.671.48.926.307.316.607.636.906.952a64.13 64.13 0 0 0-13.874 8.961c-12.78 11.663-11.945 26.008-.332 34.774 11.363 8.593 29.878 6.487 43.856 3.233a118.756 118.756 0 0 0 41.507-18.921c25.201-16.664 25.96-12.635 40.201-19.014 12.868-5.764 17.513-15.828 16.379-23.595Zm-96.717 17.635a126.483 126.483 0 0 0-18.863-5.336 102.957 102.957 0 0 0 10.037-6.767 46.43 46.43 0 0 1 8.826 12.103Zm5.863-26.78a37.5 37.5 0 0 1 10.499 10.984 111.906 111.906 0 0 1-17.009-3.481 69.123 69.123 0 0 0 6.51-7.511v.008Zm-34.171 26.66a92.631 92.631 0 0 1 9.845 13.494c1.138 1.899 1.773 1.099-9.509-2.398a136.524 136.524 0 0 0-13.579-3.445 98.756 98.756 0 0 1 13.243-7.651Z"/>
  <path fill="#191919" d="M661.284 354.342c-9.659 11.902-19.732 8.342-31.246 12.445-24.151 8.614-39.122 34.642-66.14 32.598-9.516-.722-21.819-3.105-28.598-9.871-.754-.75-2.102.228-1.496 1.158a25.198 25.198 0 0 0 2.07 2.754c6.947 8.011 29.16 11.084 39.7 8.881 21.763-4.554 36.223-25.282 56.016-31.975 10.025-3.389 16.53-1.134 25.654-7.113a29.291 29.291 0 0 0 10.477-11.847c.133-.613.226-1.234.279-1.86a1.544 1.544 0 0 0-2.612-1.081c-2.297 2.698-1.882 3.173-4.104 5.911Zm-150.622 35.839a4.981 4.981 0 0 0-3.063-.591 38.517 38.517 0 0 1-17.846-4.853 1.033 1.033 0 0 0-1.349-.071 1.035 1.035 0 0 0-.274 1.324c.533.75 1.137 1.448 1.802 2.083 3.59 3.525 17.24 6.483 20.738 4.303a1.276 1.276 0 0 0 .612-1.1 1.286 1.286 0 0 0-.62-1.095Z"/>
  <path fill="#191919" d="M519.797 375.312c-7.722-6.03-2.308-1.952-13.553-10.001a104.609 104.609 0 0 0 6.342-5.372c6.738.193 13.462.746 20.142 1.656 1.566.18 2.296-1.764 1.686-2.933a30.043 30.043 0 0 0-10.707-10.572 104.107 104.107 0 0 0 4.361-5.763c7.694-.252 15.397.03 23.052.846a1.956 1.956 0 0 0 1.678-.986 1.977 1.977 0 0 0 .004-1.948 46.225 46.225 0 0 0-14.39-16.083c3.707-8.381 4.245-12.452 6.294-16.092a11.076 11.076 0 0 1 5.539-4.905 11.056 11.056 0 0 1 7.388-.319c9.212 2.039 15.642 11.274 24.415 8.744a9.659 9.659 0 0 0 3.588-1.944c1.016-.866-.303-2.55-1.419-1.843a9.373 9.373 0 0 1-7.323.722c-6.999-1.84-14.135-11.091-25.443-9.287-10.886 1.736-11.46 12.232-16.367 23.295a18.343 18.343 0 0 0-6.861-1.269 1.952 1.952 0 0 0-1.88 1.183 1.942 1.942 0 0 0 0 1.534 1.946 1.946 0 0 0 1.88 1.182c1.779-.04 3.548.265 5.21.898a105.447 105.447 0 0 1-7.123 12.424 27.57 27.57 0 0 0-9.738 1.413c-2.065.954-4.329 3.364-2.906 5.755.566.95 1.459 1.461 4.48 3.436a99.106 99.106 0 0 1-6.952 7.16c-2.444.15-4.858.629-7.175 1.425a15.569 15.569 0 0 0-4.978 2.698 2.793 2.793 0 0 0-.359 3.352 5.221 5.221 0 0 0 1.523 1.449 79.404 79.404 0 0 0-12.664 9.738c-10.671 11.215-6.888 25.075 4.161 27.741 6.219 1.505 6.418-2.793 3.783-3.113.159 0-1.523-.291-1.869-.343a9.943 9.943 0 0 1-3.82-1.324 9.986 9.986 0 0 1-4.631-6.43 9.995 9.995 0 0 1-.048-4.047c1.893-9.778 9.794-13.701 17.87-19.628 1.14-.838.343.399 15.462 9.271 1.061.599 2.352-.938 1.348-1.72Zm-34.038 17.92c.032.075.068.187 0 0Zm42.995-35.979c-4.154-.463-9.005-.978-12.246-1.098 1.61-1.633 3.173-3.32 4.688-5.06a35.067 35.067 0 0 1 7.558 6.158Zm8.036-29.569a34.957 34.957 0 0 1 10.547 11.246 167.686 167.686 0 0 0-16.578-.554 106.782 106.782 0 0 0 6.031-10.676v-.016Zm-18.735 15.856a13.936 13.936 0 0 1 5.429-.998 84.348 84.348 0 0 1-2.79 3.568c-3.616-2.383-3.572-2.079-2.655-2.57h.016Zm-12.098 17.321a75.929 75.929 0 0 1-2.815 2.199l-.924-.663a15.083 15.083 0 0 1 3.723-1.536h.016Zm-61.1 384.786a1.352 1.352 0 1 0 2.703 0c1.148-9.459-.475-60.751-.993-64.339a1.297 1.297 0 0 0-2.213-.498 1.296 1.296 0 0 0-.326.842c-.18 2.534.558 61.385.829 63.995Z"/>
  <path fill="#191919" d="M560.794 606.817c-13.534-2.588-25.535-4.29-32.948-5.66-1.062-.195-2.486-.379-2.993.571-.658 1.242.479 2.261 1.895 2.525.914.171 23.512 3.758 31.121 4.485.111 3.46.5 6.906 1.165 10.304-2.107.702 8.654-4.434-112.513 54.543-2.928-1.286-152.846-28.516-153.248-28.588a77.127 77.127 0 0 0-.846-10.416c4.584-1.098 38.382-16.841 43.888-21.965a1.447 1.447 0 0 0-1.393-2.397c-2.613.799-7.317 3.619-17.778 8.858-26.11 13.072-26.561 11.231-27.654 16.471a49.561 49.561 0 0 0-.427 9.453 2.1 2.1 0 0 0 2.394 2.073c1.197.244 4.764.95 5.366 1.066-.798 8.204-.829 54.568-.686 56.504a5.205 5.205 0 0 0 .519 2.557c.562 1.597 2.158 1.349 2.513.399a6.842 6.842 0 0 0 .778-3.922c.208-3.79-.582-54.635-.618-55.034.399.079 142.177 27.157 146.458 27.337 2.258.092 107.131-50.845 107.542-51.049-.455 7.736 1.001 67.567 1.073 68.178.798 6.958 2.721 2.884-11.826 13.004-104.062 72.38-94.559 67.667-97.91 66.776-.399-.103-121.242-26.786-121.641-26.834a54.57 54.57 0 0 0-6.663-.675c-1.249-.108-1.461 1.837-.292 2.153 3.112.831 5.187 1.649 5.857 1.817.399.104 119.874 27.385 124.383 27.649.618.032 108.343-74.936 110.358-76.825 1.057-.71 0-.175.487-7.105.187-2.647-.587-56.815-.642-59.076a56.017 56.017 0 0 0-.93-10.184 23.268 23.268 0 0 0 5.131-2.951c2.162-1.586 1.181-13.831.08-14.042Z"/>
  <path fill="#191919" d="M383.965 649.931c46.995 8.536 55.34 10.972 61.165 11.069.171 0 50.054-22.851 52.231-24.248 1.507-.962 2.188-1.24 2.607-2.444.065-.256.03-.528-.1-.758-.129-.23-.342-.4-.594-.474a4.398 4.398 0 0 0-2.974.491c-.399.153-49.663 22.984-51.238 24.083-.398-.105-60.922-11.351-61.843-11.234-.453.079-.902.184-1.344.314-1.148.278-1.77 2.496 2.09 3.201Z"/>
  <path fill="#EF233C" d="M195.431 739.497a147.127 147.127 0 0 0-17.468-16.309c-3.045-2.447-4.954.308-7.787 3.386a71.478 71.478 0 0 0-5.454 7.948 41.492 41.492 0 0 0-2.573 4.028.973.973 0 0 0 .228 1.289.98.98 0 0 0 1.308-.091 48.832 48.832 0 0 1 6.627-6.04 51.558 51.558 0 0 0 5.154-3.992c2.678 2.69 14.17 13.306 16.708 14.028.712.096 2.048.735 3.153-.463a2.575 2.575 0 0 0 .4-3.094c.076.36.132.328-.296-.69Zm53.503-1.945a195.222 195.222 0 0 0 15.318 4.276c.973-.95 1.933-1.924 2.969-2.794 20.633-17.435 20.217-15.434 18.948-16.409a341.555 341.555 0 0 0-10.044-7.281c-2.489 1.964-24.922 20.456-27.191 22.208Zm151.832-176.093a147.027 147.027 0 0 0-17.467-16.308c-3.046-2.448-4.954.303-7.784 3.385a71.02 71.02 0 0 0-5.458 7.945 41.425 41.425 0 0 0-2.573 4.04.981.981 0 0 0 .904 1.473.99.99 0 0 0 .633-.276 48.764 48.764 0 0 1 6.626-6.04 51.163 51.163 0 0 0 5.155-3.992c2.677 2.691 14.17 13.306 16.707 14.025.712.099 2.049.738 3.153-.463a2.58 2.58 0 0 0 .4-3.094c.076.339.132.339-.296-.695Zm37.38-7.973a197.748 197.748 0 0 0 12.957 4.967c5.859-6.128 20.585-18.077 27.212-23.359A197.687 197.687 0 0 0 467.434 528c-6.078 5.35-23.494 20.596-29.288 25.486Zm16.119 6.025a193.471 193.471 0 0 0 15.318 4.279c.973-.954 1.933-1.924 2.969-2.794 20.633-17.434 20.217-15.43 18.949-16.404a339.8 339.8 0 0 0-10.045-7.282c-2.501 1.968-24.862 20.392-27.191 22.201Z"/>
  <path fill="#191919" d="M113.486 648.691a315.64 315.64 0 0 1 2.82 5.411c.918 1.81 2.041 3.524 3.047 5.282 8.097 14.108 7.901 16.454 10.529 15.747.54-.154 1-.508 1.286-.991.867-1.487-.375-3.109-1.637-5.454a124.664 124.664 0 0 0-13.856-21.689c-.899-1.162-3.016.16-2.189 1.694Zm-37.522 26.827a29.663 29.663 0 0 0 5.856 3.88c24.364 13.697 24.44 14.268 26.238 13.185 1.198-.707 1.342-2.605-1.941-4.367-24.525-13.185-27.16-14.444-28.966-14.728a1.217 1.217 0 0 0-.775.057 1.217 1.217 0 0 0-.742 1.271c.03.264.147.51.33.702Zm-8.995 43.037c5.31.564 10.662.592 15.977.084 2.904-.22 22.623-2.134 24.425-4.171a2.158 2.158 0 0 0-.284-3.26 2.152 2.152 0 0 0-1.154-.4c-.871-.116-7.421 1.27-13.389 2.145-6.05.887-25.163 2.825-25.563 2.861a1.367 1.367 0 0 0-1.376 1.365 1.37 1.37 0 0 0 1.364 1.376Zm363.952-334.494c-5.796-68.641-13.065-79.409-52.212-90.961-13.633-4.019-27.489-7.264-41.444-9.949a833.436 833.436 0 0 0-93.257-11.843c0-1.802 0-3.596.036-5.406 8.851 3.44 18.849-.623 27.42-3.304a113.83 113.83 0 0 0 25.779-11.684c22.208-13.673 55.539-47.292 67.438-61.56.927-1.163.715-1.747-.399-3.333a14.78 14.78 0 0 1 5.192-2.501c5.192-1.486 21.317-3.736 26.697-4.395 5.652-.712 11.811-1.646 15.781-6.186 6.687-7.635 1.522-16.857-7.832-19.039a27.368 27.368 0 0 0-10.194-.152 1.22 1.22 0 0 0-1.216 1.217 1.215 1.215 0 0 0 1.216 1.217c6.14.607 11.779.843 15.39 5.158a7.168 7.168 0 0 1-2.924 10.836c-4.737 2.877-9.694 2.226-29.413 5.594a34.02 34.02 0 0 0-15.058 4.835 103.548 103.548 0 0 1-10.01-21.505c-3.554-9.805-3.454-10.968-4.86-12.897-2.848-3.904-8.316-1.167-12.011-.112a474.758 474.758 0 0 0-87.697 34.913 310.691 310.691 0 0 0-12.805-31.05c-9.394-19.638-20.187-38.406-41.228-44.503-16.308-4.731-33.436-.903-48.422 7.236-1.997 1.079-3.946 2.226-5.923 3.341-.611-3.357-.376-2.306-.551-3.405 23.745-2.837 21.816-28.233 17.882-51.735a72.502 72.502 0 0 0 11.032-6.062c7.501-5.474 16.048-12.722 9.757-19.81-3.562-3.996-9.31-3.672-14.423-2.797-8.839-30.646-48.689-45.95-71.436-23.574-14.702 14.484-15.769 37.087-6.718 54.684.376.855.857 1.66 1.43 2.398a1.734 1.734 0 0 0 .998 1.422c-8.675 7.352-5.072 21.177 4.765 22.775 6.048.999 3.955-1.918 4.31 2.274a82.89 82.89 0 0 1-1.258 23.006c-3.826-1.65-7.789-3.332-11.73-4.75-16.105-5.77-33.153-6.477-45.207 5.593-12.874 12.906-22.076 43.481-26.65 61.086-8.295 31.909-17.007 68.601-5.95 99.891 10.252 29.008 35.807 48.71 62.672 63.53a189.454 189.454 0 0 0 44.999 18.256c1.765 20.921 4.793 41.758 7.401 62.592 11.12 88.871 18.905 175.372 44.14 254.797.739 2.322 3.023 1.678 4.685 1.399-.224 1.674-.347 10.241-.323 11.927a2.172 2.172 0 0 0 4.341 0c0-1.199-.064-10.789-.419-12.519 27.644-4.547 23.657-3.768 25.163-4.119a88.613 88.613 0 0 0 5.676 17.025 1.994 1.994 0 0 0 3.39-.206c.216-.401.288-.864.205-1.312a155.005 155.005 0 0 1-5.94-16.67 11.217 11.217 0 0 0 5.476-7.991 134.537 134.537 0 0 0 3.128-22.743c9.69-133.994 3.535-185.573 3.135-211.977-.303-20.154 1.314-44 10.453-62.172 3.699-7.36 8.408-5.254 17.615-3.919l105.355 15.379a431.795 431.795 0 0 0 19.943 100.326 303.151 303.151 0 0 0 10.908 28.645 5.19 5.19 0 0 0 3.595 3.065c-.292.779-.148.127-.66 3.576-.511 3.448 2.848 3.743 3.595 1.618.335-1.533.452-3.105.348-4.671 3.694.192 23.565-1.878 26.653-2.397-.903 6.84 4.086 5.39 3.93 3.116-.064-.875-.703-2.377-.799-3.756 3.392-.959 4.394-3.108 5.289-6.485 11.635-43.564 17.091-56.13 11.751-119.277ZM212.139 164.425c14.055 18.867 28.047 52.023 32.684 87.58a16.216 16.216 0 0 1-.16 4.931 1.337 1.337 0 0 1-2.616.355c-.264-.863-.663-1.662-.891-2.533a244 244 0 0 0-14.379-55.02 355.11 355.11 0 0 0-16.532-34.21 1.1 1.1 0 0 1 .8-1.638 1.099 1.099 0 0 1 1.094.535Zm-73.426-60.818c-4.138 2.677-7.165 1.806-8.875-.839a5.426 5.426 0 0 1-.719-4.795.693.693 0 0 1 .963-.428c.121.058.222.15.291.265.268.63.599 1.222.863 1.854.535 1.298 1.198 2.892 3.008 2.836 2.396-.075 5.264-2.992 5.819-3.472 1.47-1.294 3.715 1.335-1.35 4.579Zm-2.828 16.063c-13.68 7.104-22.823 4.711-37.425-.692.306-1.105.537-2.231.69-3.368.576-3.372-2.2 1.886 36.288-.711.1 1.83.248 3.2.447 4.771ZM89.892 17.841c18.681-25.216 58.136-14.208 68.812 17.217-12.853 3.065-65.788 27.278-67.007 28.637-1.49.703-2.029.899-3.662 1.794-7.246-15.979-8.584-33.276 1.857-47.648Zm1.81 70.267a7.99 7.99 0 0 1-4.454-3.264 10.238 10.238 0 0 1 5.352-15.16 14.933 14.933 0 0 1 8.544 6.945 2.067 2.067 0 0 0 3.617-.167c.219-.444.272-.952.149-1.431a29.636 29.636 0 0 1-1.39-11.808c.064-1.035-3.538 1.02 33.468-15.746 7.038-3.197 27.16-12.555 35.009-9.258 3.371 1.414 4.342 4.319 1.53 7.94a98.398 98.398 0 0 1-17.731 13.88 176.466 176.466 0 0 0-2.416-11.188 6.837 6.837 0 0 0-1.17-3.04 1.084 1.084 0 0 0-1.765-.094 1.077 1.077 0 0 0-.232.637 119.41 119.41 0 0 0 2.216 13.737 7.448 7.448 0 0 0-9.635 1.238 7.453 7.453 0 0 0-1.664 3.073 16.27 16.27 0 0 0-3.994.192 33.77 33.77 0 0 0-4.825-6.976c-.652-.668-2.045 0-1.662.97a45.936 45.936 0 0 0 3.503 6.73 16.643 16.643 0 0 0-5.756 3.356 6.9 6.9 0 0 0-2.556-2.482c-6.547-3.628-13.393 4.272-10.513 10.42 2.449 5.227 14.531 7.245 14.188-4.175-.044-1.366-.288-.799.207-1.222a14.068 14.068 0 0 1 5.984-2.885 111.861 111.861 0 0 1 6.79 15.135 21.257 21.257 0 0 1-6.227-.867 1.658 1.658 0 0 0-.879 3.197 25.31 25.31 0 0 0 8.368.799 2.594 2.594 0 0 0 1.997-3.328 116.117 116.117 0 0 0-6.79-15.232 6.392 6.392 0 0 1 1.39.072c.97.072.028-.144 1.022 1.974a8.078 8.078 0 0 0 5.808 4.008 8.066 8.066 0 0 0 6.738-2.09c.503 4.89.979 10.716.963 15.63-2.636-.838-17.319 7.592-50.703-.107a7.366 7.366 0 0 0-2.959-.336c-1.302-2.597-4.326 2.294-9.523.923ZM67.584 270.51a6.512 6.512 0 0 0-3.839-8.331 2.058 2.058 0 0 1-1.402-2.469c2.145-14.429 7.989-47.588 9.387-51.033.73-1.802.902-3.312 2.332-3.14 3.375.399-.643 7.699-7.589 53.449a10.755 10.755 0 0 1 5.237 11.752c24.823 3.688 46.772 16.781 66.627 32.112 2.496 1.926-.328 4.835-2.057 3.505-54.29-41.966-73.65-26.164-68.696-35.845Zm359.038 182.836c-1.738 11.4-4.993 22.256-11.124 46.122-1.138 4.463-.839 5.785-3.73 6.357a226.728 226.728 0 0 1-26.362 2.717 7.24 7.24 0 0 1-4.114-.684c-.112-.083-.136-.099-.148-.231A432.845 432.845 0 0 1 350.9 378.276a2.402 2.402 0 0 0-.489-1.423 2.4 2.4 0 0 0-1.241-.85L240.984 360.26c-7.122-1.035-14.579-3.237-19.496 2.905a34.36 34.36 0 0 0-4.509 8.834c-14.583 35.961-6.455 76.9-6.279 132.219.1 29.54-3.196 132.655-7.565 155.786a16.207 16.207 0 0 1-3.04 8.842c-1.598 1.443-1.518 1.123-31.674 6.026a794.474 794.474 0 0 1-26.294-118.814c-3.159-20.526-25.698-192.802-25.962-194.436a105.07 105.07 0 0 0 26.909 3.093 67.4 67.4 0 0 1-10.189 13.05c-1.702 1.678-2.752 2.301-2.609 3.556a2.061 2.061 0 0 0 1.458 1.898c1.538.335 2.337-.612 3.811-2.058a62.11 62.11 0 0 0 13.181-18.899c6.938-7.312 10.289-32.689-4.929-50.425 6.059-11.212 17.89-19.179 29.114-24.458 29.704-13.948 67.501-11.119 70.182-13.081 16.52 3.196 68.7 5.869 120.465 19.179 38.939 9.989 52.076 14.74 58.471 55.008 4.493 28.281 8.567 78.77 4.593 104.849v.012Zm319.284 28.481c-.954.04-.735.611-.208-.975.883-2.661.568-4.855.244-17.393a2.28 2.28 0 0 0-.351-1.139c-4.246-.523-5.592-.835-35.832-6.101a4.162 4.162 0 0 1-3.559 2.749c-3 .399-5.992-2.21-8.041-4.044-1.657-1.474 1.099-.375-18.844-3.995-15.889 7.252-26.797 44.008-43.781 62.731-6.538 7.216-12.861 12.858-10.708 24.266 1.881 9.961 9.782 14.987 19.655 16.685 20.842 3.596 39.739-7.028 56.155-20.142 8.787-7.032 33.204-28.217 36.415-31.377 5.396-5.311 10.545-11.528 10.948-19.179a2.098 2.098 0 0 0-2.093-2.086Zm-73.493-12.786a14.721 14.721 0 0 1 5.412-.092 23.19 23.19 0 0 1 10.041 4.111c2.964 2.146 3.404 2.841 3.843 4.284.319 1.039-.835 1.678-1.686 1.294a5.49 5.49 0 0 1-2.217-1.598 25.36 25.36 0 0 0-15.153-6.241c-.939-.076-1.299-1.626-.232-1.778l-.008.02Zm-9.934 17.261c8.12-2.841 21.537 4.143 19.572 6.729v-.048c-1.338 2.473-3.719-1.846-10.537-3.78a31.227 31.227 0 0 0-7.317-1.007c-.699-.04-1.85.096-2.349-.496-.439-.539-.092-1.542.639-1.426l-.008.028Zm-8.895 15.863a17.611 17.611 0 0 1 16.7 2.197 23.86 23.86 0 0 1 4.545 3.357 1.391 1.391 0 0 1-1.677 2.173c-6.131-3.36-8.476-6.864-19.172-6.225a.8.8 0 0 1-.773-1.14.794.794 0 0 1 .385-.382l-.008.02Zm-23.784 26.27c.255-3.596 4.701-7.784 8.539-12.043a23.168 23.168 0 0 1 18.965 1.858 18.655 18.655 0 0 1 11.695 19.978c-11.268 5.638-40.178 4.108-39.191-9.813l-.008.02Zm37.026 10.852a.73.73 0 0 0-.128.048c-.263.104-.004-.004.136-.068l-.008.02Zm76.916-54.416c0 .091 0 .207 0 0Zm0-.116c-1.01 8.079-9.937 15.874-16.172 21.256-26.15 22.584-41.939 37.959-62.05 43.381-14.539 3.908-34.035 2.397-36.871-12.702 6.511 8.678 22.224 9.266 33.208 7.648 4.909-.724 5.624-.524 15.322-6.182a267.266 267.266 0 0 0 31.782-21.488c.431-.36 20.718-17.445 28.434-25.277 7.182-7.28 6.431-7.727 6.347-6.636Z"/>
  <path fill="#191919" d="M609.118 439.274c-12.153 12.424-20.147 34.545-30.444 50.011-6.399 9.639-15.924 18.418-16.6 30.662a19.683 19.683 0 0 0 4.579 14.409c4.251 4.59 10.825 5.346 16.716 6.07 11.996 1.48 27.788.553 35.934-8.246a1.787 1.787 0 0 0 .121-2.331 1.81 1.81 0 0 0-2.296-.478 35.303 35.303 0 0 1-21.459 7.602c-6.162.302-20.418-.282-25.169-4.917a12.957 12.957 0 0 1-3.571-6.762c10.825 7.614 24.425 6.874 37.09 2.633 43.545-14.579 25.593-32.058 71.981-77.467-72.421-12.693-66.342-11.739-66.882-11.186Zm.336 82.257a53.266 53.266 0 0 1-28.861 5.135 29.678 29.678 0 0 1-14.036-5.784c.144-7.395 4.423-13.573 9.122-19.782a25.014 25.014 0 0 1 8.193-2.435 23.252 23.252 0 0 1 9.573.985 23.158 23.158 0 0 1 8.341 4.777 23.014 23.014 0 0 1 5.663 7.74 22.907 22.907 0 0 1 2.005 9.364Zm-14.105-21.374c.084.036.2.076 0 0Zm16.092-9.802c-3.091.227-5.35-5.569-20.235-4.638-.775.048-1.155-1.193-.399-1.512a16.714 16.714 0 0 1 11.716-.795c9.222 2.068 11.066 6.786 8.914 6.945h.004Zm8.494-13.016c-1.78.144-2.176-2.422-10.213-4.375a87.733 87.733 0 0 0-11.505-1.353.794.794 0 0 1-.184-1.408c4.734-2.192 13.796-.37 18.935 1.917 4.858 2.16 4.526 5.092 2.963 5.219h.004Zm4.199-17.188c-1.624.25-2.364-.235-4.651-1.138a20.002 20.002 0 0 0-13.237-1.659.846.846 0 0 1-.702-1.306.85.85 0 0 1 .479-.349 15.937 15.937 0 0 1 14.152.398 9.745 9.745 0 0 1 4.435 2.291c.42.537.404 1.631-.468 1.763h-.008Z"/>
  <path fill="#EF233C" d="M522.335 595.211a20.772 20.772 0 0 0-10.755-8.752c-2.209-.471-1.969.04-1.865-.607 1.626-9.866-2.174-22.587-10.48-26.053-.903-.399-.799 0-.695-.451a11.842 11.842 0 0 0-3.859-11.34c-.4.328-19.653 15.728-21.67 17.086 7.515 1.645 16.296 3.533 22.373-1.198 2.133-1.661 1.007-1.681 2.109-1.038 5.358 3.13 10.156 13.068 7.711 23.729-9.145 1.801-6.792 4.392-41.854 4.288-45.728-.128-45.689-8.473-64.953-9.694-16.157-1.022-34.547 4.895-48.57-4.392a62.395 62.395 0 0 1 6.053-21.729c6.192-15.76 3.995-18.623 6.081-26.992a12.603 12.603 0 0 1 9.296-10.505c10.228-.87 15.877 13.017 29.093 11.088 8.846-1.289 12.469-10.481 19.017-9.331 1.415.248.604-.224-2.561 2.863-6.18 6.029-3.939 14.242 1.375 19.864.691-.647 23.236-21.25 23.647-21.617a13.918 13.918 0 0 0 2.469 2.831c-.699.615-23.467 20.667-23.811 20.962a60.93 60.93 0 0 0 13.779 8.114c3.292-2.847-10.579 9.183 29.381-25.954a105.154 105.154 0 0 0-7.467-3.805c4.299-4.068 9.189-9.698 9.141-15.62-.052-4.887-3.628-8.121-7.379-6.955a11.726 11.726 0 0 0-6.308 7.063 50.58 50.58 0 0 0-.939-5.59c-2.342-10.106-11.874-9.183-13.896-1.9a29.798 29.798 0 0 0 2.941 17.225 24.236 24.236 0 0 0-6.133-.611 14.637 14.637 0 0 0-9.265.926c-8.35-5.147-13.499.89-19.041 4.875-10.167 7.311-17.383-2.479-24.846-6.444a14.19 14.19 0 0 0-12.493-1.571 14.19 14.19 0 0 0-8.825 8.978 68.792 68.792 0 0 0-3.308 17.332c-1.826 11.152-8.71 21.306-10.156 32.909-1.538-.2-14.502 7.678-16.656 22.759-.559 3.929-.144 6.496 3.456 8.461 5.889 3.214 15.817 3.873 22.449 4.28 21.362 1.31 34.315 3.534 42.137-3.873 4.898 6.141 13.66 7.087 21.055 7.451a511.58 511.58 0 0 0 68.441-1.234c16.241-1.346 44.607-3.051 35.781-15.828Zm-70.487-76.701c.715-3.738 3.948-14.139 7.399-14.89l.448-.024a3.093 3.093 0 0 1 1.798 3.051c.096 5.282-5.194 10.729-9.129 14.262-.967-.391-.719.176-.516-2.399Zm-8.729-20.675a2.34 2.34 0 0 1 1.706.539c3.675 2.447 3.523 17.349 2.872 21.848l-.971.883c-4.946-5.243-9.992-21.306-3.607-23.27Zm62.54 86.352c0-.159 0-.088 0 0ZM233 732.037A202.02 202.02 0 0 0 245.936 737c5.849-6.129 20.552-18.079 27.168-23.358a196.834 196.834 0 0 0-10.867-7.099c-6.177 5.446-23.452 20.603-29.237 25.494Z"/>
  <path fill="#EF233C" d="M316.337 773.308a20.806 20.806 0 0 0-10.744-8.761c-2.207-.471-1.968.044-1.864-.603 1.617-9.833-2.147-22.603-10.468-26.084-.902-.38-.799 0-.699-.448a11.853 11.853 0 0 0-3.851-11.351c-.399.324-19.632 15.74-21.648 17.103 7.491 1.639 16.272 3.541 22.35-1.199 2.131-1.667 1.006-1.687 2.107-1.039 5.416 3.169 10.13 13.149 7.703 23.749-9.135 1.803-6.785 4.397-41.814 4.293-45.678-.128-45.639-8.482-64.884-9.701-16.14-1.027-34.511 4.897-48.519-4.396a62.566 62.566 0 0 1 6.042-21.755c6.19-15.776 3.991-18.638 6.075-27.015a12.62 12.62 0 0 1 9.287-10.52c10.217-.872 15.861 13.03 29.067 11.099 8.832-1.291 12.456-10.488 18.994-9.341 1.417.248.606-.219-2.555 2.866-6.174 6.036-3.927 14.265 1.369 19.889.695-.648 23.217-21.276 23.628-21.643a14.033 14.033 0 0 0 2.462 2.837c-.694.616-23.44 20.684-23.783 20.98a60.832 60.832 0 0 0 13.765 8.126c3.301-2.87-10.592 9.225 29.347-25.98a103.316 103.316 0 0 0-7.459-3.809c4.298-4.073 9.199-9.705 9.135-15.632-.08-7.362-8.349-11.675-13.677.108a49.494 49.494 0 0 0-.938-5.596c-2.335-10.12-11.858-9.193-13.877-1.902a29.827 29.827 0 0 0 2.937 17.238 24.411 24.411 0 0 0-6.126-.611 14.62 14.62 0 0 0-9.255.927c-13.746-8.485-16.567 11.727-31.083 6.559-3.676-1.311-8.465-5.839-12.772-8.13a14.17 14.17 0 0 0-12.48-1.572 14.177 14.177 0 0 0-8.816 8.987 68.815 68.815 0 0 0-3.305 17.354c-1.824 11.159-8.7 21.324-10.145 32.939-1.537-.196-14.488 7.69-16.639 22.782-.559 3.929-.144 6.503 3.452 8.469 5.879 3.198 15.801 3.877 22.422 4.281 21.345 1.315 34.284 3.541 42.094-3.873 4.894 6.143 13.65 7.09 21.037 7.454a510.05 510.05 0 0 0 68.372-1.235c16.236-1.363 44.572-3.053 35.756-15.844Zm-70.411-76.776c.739-3.861 3.919-14.577 7.835-14.932a2.119 2.119 0 0 1 1.389 1.331c2.191 5.232-4.502 12.21-8.713 15.987-.95-.371-.73.172-.511-2.386Zm-8.724-20.7a2.347 2.347 0 0 1 1.704.544c3.68 2.454 3.504 17.466 2.866 21.867l-.966.883c-4.941-5.232-9.966-21.323-3.604-23.294Zm62.476 86.441c0-.084.02-.156 0 0Z"/>
</svg>
